<?xml version="1.0" encoding="UTF-8" standalone="no"?>
<!-- Created with Inkscape (http://www.inkscape.org/) -->

<svg
   xmlns:dc="http://purl.org/dc/elements/1.1/"
   xmlns:cc="http://creativecommons.org/ns#"
   xmlns:rdf="http://www.w3.org/1999/02/22-rdf-syntax-ns#"
   xmlns:svg="http://www.w3.org/2000/svg"
   xmlns="http://www.w3.org/2000/svg"
   xmlns:sodipodi="http://sodipodi.sourceforge.net/DTD/sodipodi-0.dtd"
   xmlns:inkscape="http://www.inkscape.org/namespaces/inkscape"
   width="549"
   height="100"
   viewBox="0 0 549.00001 100.00001"
   id="svg2"
   version="1.1"
   inkscape:version="0.91 r13725"
   sodipodi:docname="logo_lime.svg"
   inkscape:export-filename="N:\Projects\lime\res\header_logo.png"
   inkscape:export-xdpi="8.270565"
   inkscape:export-ydpi="8.270565">
  <defs
     id="defs4" />
  <sodipodi:namedview
     id="base"
     pagecolor="#ffffff"
     bordercolor="#666666"
     borderopacity="1.0"
     inkscape:pageopacity="0.0"
     inkscape:pageshadow="2"
     inkscape:zoom="0.49497475"
     inkscape:cx="489.20208"
     inkscape:cy="68.849753"
     inkscape:document-units="px"
     inkscape:current-layer="layer1"
     showgrid="false"
     inkscape:window-width="1920"
     inkscape:window-height="1137"
     inkscape:window-x="-8"
     inkscape:window-y="-8"
     inkscape:window-maximized="1"
     showguides="true"
     inkscape:guide-bbox="true"
     inkscape:snap-text-baseline="false"
     fit-margin-top="0"
     fit-margin-left="0"
     fit-margin-right="0"
     fit-margin-bottom="0"
     units="px" />
  <metadata
     id="metadata7">
    <rdf:RDF>
      <cc:Work
         rdf:about="">
        <dc:format>image/svg+xml</dc:format>
        <dc:type
           rdf:resource="http://purl.org/dc/dcmitype/StillImage" />
        <dc:title></dc:title>
      </cc:Work>
    </rdf:RDF>
  </metadata>
  <g
     inkscape:label="Layer 1"
     inkscape:groupmode="layer"
     id="layer1"
     transform="translate(-411,-190.36225)">
    <g
       id="g6456"
       transform="matrix(3.0581074,0,0,3.0581074,-100.34614,-348.40914)"
       inkscape:export-filename="N:\Projects\lime\res\slpash_logo.png"
       inkscape:export-xdpi="22.62957"
       inkscape:export-ydpi="22.62957"
       style="fill:#ffffff">
      <g
         id="g6428"
         style="fill:#ffffff">
        <g
           id="g6430"
           style="fill:#ffffff">
          <path
             id="path6432"
             d="m 167.21,208 6.188,0 0,-30.732 -6.188,0 0,30.732 z m 12.596,0 6.188,0 0,-22.391 -6.188,0 0,22.391 z m 44.924,-20.568 c -2.018,-1.507 -5.134,-2.261 -9.347,-2.261 l -22.982,0 0,22.829 6.188,0 0,-19.756 8.397,0 0,19.756 6.188,0 0,-19.756 2.21,0 c 2.003,0 3.536,0.461 4.596,1.383 1.061,0.922 1.591,2.437 1.591,4.544 l 0,13.829 6.188,0 0,-13.829 c -10e-4,-2.986 -1.01,-5.232 -3.029,-6.739 z m 33.523,8.495 c 0,-1.814 -0.339,-3.439 -1.016,-4.874 -0.678,-1.434 -1.591,-2.656 -2.74,-3.666 -1.149,-1.01 -2.505,-1.778 -4.066,-2.305 -1.562,-0.527 -3.227,-0.79 -4.994,-0.79 -1.886,0 -3.61,0.271 -5.171,0.812 -1.562,0.542 -2.91,1.333 -4.044,2.371 -1.135,1.039 -2.019,2.327 -2.652,3.863 -0.634,1.537 -0.95,3.286 -0.95,5.246 0,1.991 0.332,3.747 0.994,5.269 0.663,1.522 1.598,2.803 2.807,3.842 1.208,1.039 2.674,1.829 4.397,2.37 1.723,0.541 3.631,0.813 5.724,0.813 0.942,0 1.885,-0.081 2.828,-0.241 0.943,-0.161 1.849,-0.381 2.718,-0.659 0.869,-0.277 1.679,-0.621 2.431,-1.031 0.752,-0.41 1.407,-0.863 1.967,-1.361 l -1.768,-2.634 c -1.208,0.907 -2.438,1.609 -3.69,2.107 -1.253,0.498 -2.601,0.746 -4.044,0.746 -2.033,0 -3.72,-0.527 -5.061,-1.58 -1.341,-1.054 -2.188,-2.795 -2.542,-5.225 l 18.872,0 0,-3.073 z m -19.004,0 c 0.029,-1.581 0.213,-2.927 0.552,-4.039 0.338,-1.112 0.78,-2.02 1.326,-2.722 0.544,-0.702 1.186,-1.214 1.922,-1.537 0.736,-0.322 1.532,-0.483 2.387,-0.483 0.766,0 1.524,0.169 2.276,0.505 0.751,0.337 1.414,0.864 1.989,1.581 0.575,0.718 1.039,1.632 1.392,2.744 0.353,1.112 0.531,2.43 0.531,3.951 l -12.375,0 z"
             style="fill:#ffffff"
             inkscape:connector-curvature="0" />
        </g>
      </g>
      <path
         id="path6434"
         d="m 185.286,177.378 c -0.619,-0.659 -1.415,-0.988 -2.387,-0.988 -1.002,0 -1.805,0.329 -2.409,0.988 -0.604,0.659 -0.906,1.427 -0.906,2.305 0,0.878 0.302,1.646 0.906,2.305 0.604,0.658 1.407,0.988 2.409,0.988 1.001,0 1.805,-0.33 2.409,-0.988 0.604,-0.659 0.906,-1.427 0.906,-2.305 0,-0.878 -0.309,-1.646 -0.928,-2.305 z"
         style="fill:#ffffff"
         inkscape:connector-curvature="0" />
      <path
         id="path6436"
         d="m 264.406,204.279 c 0,1.294 0.438,2.311 1.315,3.051 0.878,0.739 2.129,1.108 3.755,1.108 0.546,0 1.098,-0.066 1.65,-0.197 0.554,-0.132 1.047,-0.298 1.479,-0.495 l -0.646,-1.288 c -0.274,0.146 -0.612,0.28 -1.015,0.405 -0.403,0.126 -0.82,0.189 -1.252,0.189 -0.302,0 -0.59,-0.054 -0.862,-0.159 -0.274,-0.105 -0.516,-0.267 -0.725,-0.485 -0.207,-0.218 -0.373,-0.502 -0.495,-0.852 -0.122,-0.35 -0.184,-0.775 -0.184,-1.277 l 0,-5.15 3.345,0 0,-1.387 -3.345,0 0,-3.17 -3.021,0 0,3.17 -2.051,0 0,1.387 2.051,0 0,5.15 z"
         style="fill:#ffffff"
         inkscape:connector-curvature="0" />
      <path
         id="path6438"
         d="m 278.432,206.914 c -0.403,-0.159 -0.755,-0.406 -1.058,-0.743 -0.302,-0.338 -0.542,-0.776 -0.723,-1.317 -0.181,-0.542 -0.27,-1.195 -0.27,-1.961 0,-0.766 0.089,-1.42 0.27,-1.962 0.181,-0.541 0.421,-0.98 0.723,-1.317 0.303,-0.336 0.654,-0.584 1.058,-0.742 0.402,-0.158 0.835,-0.237 1.295,-0.237 0.46,0 0.892,0.079 1.294,0.237 0.403,0.158 0.756,0.406 1.058,0.742 0.303,0.337 0.543,0.776 0.724,1.317 0.18,0.542 0.27,1.196 0.27,1.962 0,0.766 -0.09,1.419 -0.27,1.961 -0.181,0.541 -0.421,0.979 -0.724,1.317 -0.302,0.337 -0.654,0.584 -1.058,0.743 -0.402,0.157 -0.834,0.237 -1.294,0.237 -0.46,0 -0.893,-0.08 -1.295,-0.237 z m -1.381,-9.202 c -0.806,0.245 -1.496,0.602 -2.072,1.069 -0.575,0.469 -1.024,1.051 -1.349,1.743 -0.323,0.694 -0.485,1.483 -0.485,2.368 0,0.898 0.162,1.69 0.485,2.377 0.324,0.687 0.773,1.265 1.349,1.733 0.576,0.469 1.267,0.825 2.072,1.069 0.805,0.244 1.697,0.366 2.676,0.366 0.964,0 1.853,-0.122 2.665,-0.366 0.812,-0.244 1.507,-0.601 2.082,-1.069 0.575,-0.468 1.025,-1.047 1.349,-1.733 0.324,-0.687 0.485,-1.479 0.485,-2.377 0,-0.885 -0.161,-1.674 -0.485,-2.368 -0.323,-0.692 -0.773,-1.274 -1.349,-1.743 -0.575,-0.468 -1.27,-0.824 -2.082,-1.069 -0.813,-0.244 -1.701,-0.366 -2.665,-0.366 -0.979,0 -1.872,0.122 -2.676,0.366 z"
         style="fill:#ffffff"
         inkscape:connector-curvature="0" />
      <path
         id="path6440"
         d="m 297.313,197.742 -3.237,0 c -1.74,0 -3.074,0.373 -4.002,1.119 -0.929,0.746 -1.393,1.792 -1.393,3.14 l 0,6.042 3.021,0 0,-6.042 c 0,-0.951 0.259,-1.667 0.776,-2.149 0.519,-0.482 1.266,-0.723 2.244,-0.723 l 2.59,0 0,-1.387 z"
         style="fill:#ffffff"
         inkscape:connector-curvature="0" />
      <path
         id="path6442"
         d="m 306.485,197.742 -3.237,0 c -1.741,0 -3.075,0.373 -4.003,1.119 -0.928,0.746 -1.393,1.792 -1.393,3.14 l 0,6.042 3.021,0 0,-6.042 c 0,-0.951 0.259,-1.667 0.777,-2.149 0.518,-0.482 1.265,-0.723 2.243,-0.723 l 2.591,0 0,-1.387 z"
         style="fill:#ffffff"
         inkscape:connector-curvature="0" />
      <path
         id="path6444"
         d="m 311.566,206.339 c -0.654,-0.476 -1.068,-1.261 -1.241,-2.356 l 9.215,0 0,-1.388 c 0,-0.818 -0.166,-1.551 -0.497,-2.198 -0.33,-0.647 -0.775,-1.199 -1.338,-1.654 -0.561,-0.456 -1.223,-0.802 -1.984,-1.04 -0.763,-0.238 -1.575,-0.356 -2.438,-0.356 -0.921,0 -1.763,0.122 -2.525,0.366 -0.763,0.245 -1.421,0.602 -1.975,1.069 -0.553,0.469 -0.985,1.051 -1.294,1.743 -0.311,0.694 -0.465,1.483 -0.465,2.368 0,0.898 0.162,1.69 0.485,2.377 0.324,0.687 0.781,1.265 1.371,1.733 0.59,0.468 1.306,0.825 2.147,1.069 0.841,0.244 1.772,0.366 2.794,0.366 0.461,0 0.921,-0.036 1.381,-0.108 0.461,-0.073 0.903,-0.172 1.327,-0.297 0.425,-0.126 0.82,-0.281 1.188,-0.466 0.366,-0.185 0.687,-0.39 0.96,-0.614 l -0.862,-1.188 c -0.591,0.41 -1.191,0.727 -1.803,0.951 -0.612,0.224 -1.27,0.337 -1.974,0.337 -0.993,0 -1.817,-0.239 -2.472,-0.714 z m 2.828,-7.478 c 0.367,0.152 0.69,0.389 0.971,0.713 0.281,0.324 0.507,0.736 0.68,1.238 0.173,0.502 0.259,1.096 0.259,1.782 l -6.041,0 c 0.013,-0.713 0.104,-1.32 0.269,-1.822 0.166,-0.502 0.382,-0.911 0.647,-1.228 0.266,-0.317 0.579,-0.548 0.939,-0.693 0.359,-0.146 0.748,-0.218 1.165,-0.218 0.373,10e-4 0.743,0.076 1.111,0.228 z"
         style="fill:#ffffff"
         inkscape:connector-curvature="0" />
      <path
         id="path6446"
         d="m 333.891,201.803 c 0,-1.347 -0.493,-2.36 -1.479,-3.04 -0.984,-0.681 -2.506,-1.021 -4.563,-1.021 l -5.827,0 0,10.301 3.021,0 0,-8.914 2.806,0 c 0.978,0 1.726,0.208 2.243,0.624 0.519,0.416 0.777,1.099 0.777,2.05 l 0,6.24 3.021,0 0,-6.24 z"
         style="fill:#ffffff"
         inkscape:connector-curvature="0" />
      <path
         id="path6448"
         d="m 337.343,204.279 c 0,1.294 0.438,2.311 1.316,3.051 0.878,0.739 2.129,1.108 3.755,1.108 0.547,0 1.097,-0.066 1.65,-0.197 0.555,-0.132 1.048,-0.298 1.479,-0.495 l -0.647,-1.288 c -0.273,0.146 -0.611,0.28 -1.014,0.405 -0.403,0.126 -0.82,0.189 -1.252,0.189 -0.303,0 -0.591,-0.054 -0.863,-0.159 -0.273,-0.105 -0.514,-0.267 -0.723,-0.485 -0.209,-0.218 -0.374,-0.502 -0.496,-0.852 -0.123,-0.35 -0.185,-0.775 -0.185,-1.277 l 0,-5.15 3.346,0 0,-1.387 -3.346,0 0,-3.17 -3.021,0 0,3.17 -2.05,0 0,1.387 2.05,0 0,5.15 z"
         style="fill:#ffffff"
         inkscape:connector-curvature="0" />
    </g>
  </g>
</svg>
